# xmcd
#
# Track frame offsets: 
#        150
#        13433
#        27143
#        42022
#        55434
#        69968
#        84188
#        99486
#        112203
#        124671
#        137669
#        150615
#        164420
#        175768
#        189780
#        202513
#        217343
#        230884
#        242799
#        255420
#        267627
#        278958
#        291062
#        306363
#        320073
#
# Disc length: 4537 seconds
#
# Revision: 2
# Processed by: cddbd v1.5.2PL0 Copyright (c) Steve Scherf et al.
# Submitted via: ExactAudioCopy v0.99pb5
#
DISCID=6e11b719
DTITLE=Big Bill Broonzy - The Anthology
DYEAR=2011
DGENRE=
TTITLE0=When The Blues Began
TTITLE1=Key To The Highway
TTITLE2=John Henry
TTITLE3=Big Bill Blues
TTITLE4=Martha Blues
TTITLE5=Saturday Evening Blues
TTITLE6=Glory Of Love
TTITLE7=Backwater Blues
TTITLE8=Little City Woman
TTITLE9=You Changed
TTITLE10=How You Want It Done
TTITLE11=Be Myself
TTITLE12=Jacqueline
TTITLE13=Hollerin' Blues
TTITLE14=Willie Mae Blues
TTITLE15=C.C. Rider
TTITLE16=South Bound Train
TTITLE17=Mopper's Blues
TTITLE18=Lonesome
TTITLE19=Mississippi River Blues
TTITLE20=Mindin' My Own Business
TTITLE21=Never Never
TTITLE22=Bill Bailey
TTITLE23=Get Back
TTITLE24=Careless Love
EXTD=
EXTT0=
EXTT1=
EXTT2=
EXTT3=
EXTT4=
EXTT5=
EXTT6=
EXTT7=
EXTT8=
EXTT9=
EXTT10=
EXTT11=
EXTT12=
EXTT13=
EXTT14=
EXTT15=
EXTT16=
EXTT17=
EXTT18=
EXTT19=
EXTT20=
EXTT21=
EXTT22=
EXTT23=
EXTT24=
PLAYORDER=
